<svg width="56" height="56" viewBox="0 0 56 56" fill="none" xmlns="http://www.w3.org/2000/svg">
<g filter="url(#filter0_d_34411_332)">
<path d="M28.0002 0C14.747 0 4 11.0169 4 24.6076C4 35.4799 10.8768 44.7039 20.4128 47.9577C21.6123 48.1855 22.0526 47.4239 22.0526 46.7739C22.0526 46.1872 22.0304 44.2487 22.02 42.1925C15.3431 43.6811 13.9342 39.2891 13.9342 39.2891C12.8425 36.4448 11.2695 35.6885 11.2695 35.6885C9.09191 34.1613 11.4336 34.1926 11.4336 34.1926C13.8436 34.3662 15.1126 36.7285 15.1126 36.7285C17.2532 40.4904 20.7272 39.4028 22.0967 38.7741C22.3121 37.1836 22.9341 36.0981 23.6205 35.4836C18.2897 34.8613 12.6859 32.7513 12.6859 23.3224C12.6859 20.6358 13.6234 18.4406 15.1587 16.7174C14.9095 16.0976 14.088 13.5947 15.3912 10.2052C15.3912 10.2052 17.4066 9.54386 21.993 12.7276C23.9074 12.1824 25.9606 11.9089 28.0002 11.8996C30.0398 11.9089 32.0946 12.1824 34.0126 12.7276C38.5934 9.54386 40.606 10.2052 40.606 10.2052C41.9124 13.5947 41.0905 16.0976 40.8413 16.7174C42.3801 18.4406 43.3113 20.6358 43.3113 23.3224C43.3113 32.7737 37.6968 34.8548 32.3525 35.464C33.2133 36.2276 33.9804 37.7252 33.9804 40.021C33.9804 43.3135 33.9526 45.9634 33.9526 46.7739C33.9526 47.4288 34.3846 48.1961 35.6011 47.9544C45.132 44.697 52 35.4762 52 24.6076C52 11.0169 41.2546 0 28.0002 0" fill="#FFD900"/>
<path d="M13.1608 35.1624C13.1081 35.2835 12.9208 35.3198 12.7503 35.2367C12.5765 35.1572 12.4789 34.9922 12.5353 34.8707C12.5868 34.746 12.7745 34.7113 12.9478 34.7949C13.122 34.8743 13.2211 35.041 13.1608 35.1624" fill="#FFD900"/>
<path d="M14.1312 36.263C14.0169 36.3707 13.7936 36.3207 13.642 36.1504C13.4854 35.9806 13.456 35.7534 13.5718 35.6441C13.6896 35.5363 13.9062 35.5868 14.0633 35.7566C14.22 35.9285 14.2506 36.1541 14.1312 36.263" fill="#FFD900"/>
<path d="M15.0757 37.6662C14.9289 37.7699 14.6889 37.6726 14.5406 37.456C14.3938 37.2393 14.3938 36.9795 14.5437 36.8754C14.6925 36.7713 14.9289 36.8649 15.0793 37.0799C15.2257 37.3002 15.2257 37.5601 15.0757 37.6662" fill="#FFD900"/>
<path d="M16.3697 39.0219C16.2384 39.1692 15.9588 39.1297 15.7541 38.9287C15.5446 38.7322 15.4863 38.4534 15.618 38.3062C15.7509 38.1585 16.0321 38.2001 16.2384 38.3994C16.4463 38.5955 16.5098 38.8763 16.3697 39.0219" fill="#FFD900"/>
<path d="M18.1548 39.809C18.0969 39.9999 17.8276 40.0866 17.5562 40.0055C17.2853 39.922 17.108 39.6985 17.1627 39.5056C17.219 39.3136 17.4896 39.2232 17.7629 39.3099C18.0334 39.393 18.2112 39.6149 18.1548 39.809" fill="#FFD900"/>
<path d="M20.1153 39.9552C20.122 40.1561 19.892 40.3228 19.6071 40.3264C19.3207 40.3329 19.089 40.1703 19.0859 39.9726C19.0859 39.7696 19.3108 39.6046 19.5972 39.5998C19.882 39.5941 20.1153 39.7555 20.1153 39.9552" fill="#FFD900"/>
<path d="M21.9397 39.6392C21.9738 39.8353 21.7759 40.0366 21.493 40.0903C21.2149 40.1419 20.9575 40.0209 20.9222 39.8264C20.8877 39.6255 21.0892 39.4241 21.3669 39.3721C21.6501 39.3221 21.9036 39.4399 21.9397 39.6392" fill="#FFD900"/>
</g>
<defs>
<filter id="filter0_d_34411_332" x="0" y="0" width="56" height="56" filterUnits="userSpaceOnUse" color-interpolation-filters="sRGB">
<feFlood flood-opacity="0" result="BackgroundImageFix"/>
<feColorMatrix in="SourceAlpha" type="matrix" values="0 0 0 0 0 0 0 0 0 0 0 0 0 0 0 0 0 0 127 0" result="hardAlpha"/>
<feOffset dy="4"/>
<feGaussianBlur stdDeviation="2"/>
<feComposite in2="hardAlpha" operator="out"/>
<feColorMatrix type="matrix" values="0 0 0 0 0 0 0 0 0 0 0 0 0 0 0 0 0 0 0.25 0"/>
<feBlend mode="normal" in2="BackgroundImageFix" result="effect1_dropShadow_34411_332"/>
<feBlend mode="normal" in="SourceGraphic" in2="effect1_dropShadow_34411_332" result="shape"/>
</filter>
</defs>
</svg>
